#!OML:ASF C:\ViconDB\ViconDB\414\Spring2016\041811\Spring2016.ASF
:FULLY-SPECIFIED
:DEGREES
486
root 16.1488 18.8083 -16.7001 896.093 -57.273 185.546
lowerback 6.44952 -5.96588 -5.89863
upperback 1.55097 -8.40095 -0.95895
thorax -1.28581 -4.20887 2.84797
lowerneck -17.6374 0.411565 -13.8007
upperneck 25.3643 -2.16631 20.8504
head 11.4664 -0.262933 10.1234
rclavicle -5.62561e-014 -4.6118e-014
rhumerus -68.074 -17.0085 -25.9505
rradius 36.6321
rwrist 33.4871
rhand -36.5917 -17.4233
rfingers 7.12502
rthumb -9.6807 -47.1808
lclavicle -5.62561e-014 -4.6118e-014
lhumerus 2.24062 -6.64066 33.2415
lradius 31.8883
lwrist -17.0714
lhand -31.0998 18.8612
lfingers 7.12502
lthumb -4.3795 48.7959
rfemur -22.3829 -219.54 5.14455
rtibia 34.4802
rfoot -43.1949 -59.6243
rtoes -2.6585
lfemur -18.0545 26.6214 -2.14378
ltibia 48.1707
lfoot -16.2446 16.0641
ltoes -9.59617
487
root 16.1344 18.8498 -16.7287 895.899 -56.6771 185.606
lowerback 6.46568 -6.19997 -5.77149
upperback 1.74211 -8.6982 -0.857902
thorax -1.07302 -4.36964 2.88254
lowerneck -17.9104 0.647612 -13.5327
upperneck 25.4766 -1.81815 20.6178
head 11.4828 -0.0873985 10.033
rclavicle -2.5345e-014 5.08889e-014
rhumerus -68.602 -17.5312 -27.586
rradius 35.2948
rwrist 33.0914
rhand -36.2581 -17.729
rfingers 7.12502
rthumb -9.35885 -47.5012
lclavicle -2.5345e-014 5.08889e-014
lhumerus 3.79467 -5.19841 36.7095
lradius 31.8312
lwrist -18.2862
lhand -30.9583 17.7814
lfingers 7.12502
lthumb -4.24283 47.7189
rfemur -22.0815 -218.495 5.40496
rtibia 33.9502
rfoot -42.2833 -59.2104
rtoes -3.82763
lfemur -18.0312 25.0112 -2.13038
ltibia 46.88
lfoot -17.3218 15.9617
ltoes -9.83173
488
root 16.0996 18.8927 -16.7536 896.844 -56.0215 184.498
lowerback 6.48711 -6.36757 -5.99223
upperback 1.55757 -8.94611 -0.981719
thorax -1.24055 -4.48298 2.90229
lowerneck -17.7981 0.918167 -13.4769
upperneck 25.6845 -1.51847 20.6451
head 11.4667 0.0407845 10.0819
rclavicle -1.28216e-014 2.70347e-014
rhumerus -69.9636 -18.2121 -28.2713
rradius 34.1666
rwrist 33.3784
rhand -35.7766 -17.8031
rfingers 7.12502
rthumb -8.89424 -47.5957
lclavicle -1.28216e-014 2.70347e-014
lhumerus 4.96982 -4.75147 40.3941
lradius 31.9716
lwrist -18.3702
lhand -31.0429 17.1127
lfingers 7.12502
lthumb -4.32457 47.0485
rfemur -21.6501 -218.315 4.89729
rtibia 33.3428
rfoot -42.7415 -58.9991
rtoes -4.4851
lfemur -18.0102 23.3451 -2.97419
ltibia 45.423
lfoot -18.5878 16.0484
ltoes -10.308
489
root 16.0871 18.9308 -16.7628 896.591 -55.2762 184.69
lowerback 6.85582 -6.5482 -5.72618
upperback 1.49454 -9.19048 -0.842766
thorax -1.50603 -4.59421 2.96721
lowerneck -17.9123 1.3106 -12.9887
upperneck 25.9159 -0.999183 20.2235
head 11.4589 0.286236 9.89128
rclavicle 8.34896e-015 4.77083e-015
rhumerus -71.3554 -19.5613 -28.2865
rradius 33.0928
rwrist 34.5957
rhand -35.2654 -17.8481
rfingers 7.12502
rthumb -8.40094 -47.661
lclavicle 8.34896e-015 4.77083e-015
lhumerus 6.26379 -4.10345 44.0995
lradius 31.8784
lwrist -18.5861
lhand -31.0449 16.5007
lfingers 7.12502
lthumb -4.32647 46.4365
rfemur -21.097 -217.266 5.31296
rtibia 32.6672
rfoot -41.8099 -58.5941
rtoes -5.33783
lfemur -17.9648 21.5434 -2.94545
ltibia 43.8598
lfoot -19.5834 16.2483
ltoes -10.7823
490
root 16.0558 18.9689 -16.7732 896.401 -54.4143 184.803
lowerback 6.90136 -6.68593 -5.40365
upperback 1.53914 -9.35007 -0.765279
thorax -1.50886 -4.67545 2.88572
lowerneck -18.147 1.65653 -12.3705
upperneck 26.1635 -0.512178 19.6043
head 11.4983 0.516241 9.59842
rclavicle -9.39258e-014 4.77083e-014
rhumerus -73.0267 -21.1615 -27.9171
rradius 32.0839
rwrist 36.0958
rhand -34.9565 -17.7765
rfingers 7.12502
rthumb -8.10276 -47.6012
lclavicle -9.39258e-014 4.77083e-014
lhumerus 7.52016 -3.9652 47.7745
lradius 31.8951
lwrist -17.9682
lhand -30.8229 16.9172
lfingers 7.12502
lthumb -4.11212 46.8572
rfemur -20.6119 -216.687 5.57289
rtibia 31.9598
rfoot -41.8105 -58.2915
rtoes -6.11227
lfemur -17.7688 19.7843 -2.94138
ltibia 42.1815
lfoot -20.5789 16.571
ltoes -11.6911
491
root 16.014 19.0062 -16.78 896.856 -53.4919 184.206
lowerback 6.91633 -6.79379 -5.45768
upperback 1.46497 -9.50191 -0.804986
thorax -1.57926 -4.74708 2.89004
lowerneck -18.2056 1.96878 -11.9061
upperneck 26.4576 -0.159163 19.2566
head 11.551 0.678759 9.43246
rclavicle -7.196e-014 -2.22639e-014
rhumerus -74.4557 -22.2857 -27.8483
rradius 30.8107
rwrist 37.338
rhand -34.2087 -17.8115
rfingers 7.12502
rthumb -7.38102 -47.6627
lclavicle -7.196e-014 -2.22639e-014
lhumerus 8.44529 -4.4468 51.3237
lradius 31.9815
lwrist -17.1329
lhand -31.2441 17.2961
lfingers 7.12502
lthumb -4.51881 47.2279
rfemur -20.0738 -216.389 5.33413
rtibia 31.2249
rfoot -42.393 -58.0399
rtoes -6.5595
lfemur -17.5664 18.032 -3.44441
ltibia 40.4139
lfoot -21.5163 16.8129
ltoes -11.7268
492
root 15.9707 19.0455 -16.782 896.951 -52.4356 184.025
lowerback 6.9294 -6.87213 -5.29746
upperback 1.46799 -9.59618 -0.810513
thorax -1.60239 -4.79409 2.8068
lowerneck -18.4333 2.33671 -11.2041
upperneck 26.7607 0.271064 18.7439
head 11.6365 0.892662 9.17259
rclavicle 6.55989e-015 -4.53229e-014
rhumerus -76.3164 -23.9134 -26.9591
rradius 29.6396
rwrist 39.2831
rhand -33.8375 -17.0085
rfingers 7.12502
rthumb -7.02271 -46.872
lclavicle 6.55989e-015 -4.53229e-014
lhumerus 9.31653 -4.23778 55.0119
lradius 31.9277
lwrist -17.94
lhand -30.8231 17.3637
lfingers 7.12502
lthumb -4.11228 47.3038
rfemur -19.4786 -215.803 5.41235
rtibia 30.5252
rfoot -42.7177 -57.7463
rtoes -7.37949
lfemur -17.3807 16.2801 -3.66449
ltibia 38.6601
lfoot -22.3086 17.2642
ltoes -12.4318
493
root 15.9227 19.0875 -16.782 897.214 -51.283 183.63
lowerback 6.93535 -6.97697 -5.40189
upperback 1.39463 -9.73991 -0.663997
thorax -1.62675 -4.8625 3.02299
lowerneck -18.6165 2.7725 -10.8575
upperneck 27.107 0.926597 18.2268
head 11.6858 1.1734 9.00886
rclavicle 1.6514e-013 7.15625e-015
rhumerus -77.6856 -25.0999 -25.7679
rradius 28.3305
rwrist 43.0318
rhand -31.8903 -17.2646
rfingers 7.12502
rthumb -5.14279 -47.1822
lclavicle 1.6514e-013 7.15625e-015
lhumerus 9.97262 -4.22198 58.8472
lradius 31.4993
lwrist -18.0383
lhand -31.193 17.2332
lfingers 7.12502
lthumb -4.46955 47.1661
rfemur -18.8284 -214.441 5.3986
rtibia 29.8877
rfoot -42.2222 -57.2776
rtoes -8.77846
lfemur -17.0849 14.7234 -4.09169
ltibia 36.9485
lfoot -22.9231 17.3495
ltoes -13.4508
494
root 15.8733 19.106 -16.7777 897.265 -50.037 183.363
lowerback 6.9656 -7.04249 -5.28177
upperback 1.44278 -9.8211 -0.670514
thorax -1.60764 -4.90587 2.95776
lowerneck -18.8532 3.18811 -10.2075
upperneck 27.3447 1.48776 17.6418
head 11.7393 1.43681 8.74515
rclavicle -1.03418e-013 7.95139e-015
rhumerus -79.4029 -26.4805 -24.6852
rradius 27.1495
rwrist 45.4651
rhand -33.0287 -16.7576
rfingers 7.12502
rthumb -6.24193 -46.6456
lclavicle -1.03418e-013 7.95139e-015
lhumerus 10.7308 -4.85971 62.1817
lradius 31.1234
lwrist -17.7543
lhand -31.4152 17.4076
lfingers 7.12502
lthumb -4.68407 47.3358
rfemur -18.4016 -213.863 5.29597
rtibia 29.2841
rfoot -42.8591 -57.0962
rtoes -8.99135
lfemur -16.7612 13.2259 -4.38717
ltibia 35.4086
lfoot -23.2421 17.1502
ltoes -14.3168
495
root 15.8207 19.1209 -16.775 897.19 -48.6015 183.305
lowerback 7.16502 -7.09222 -5.09788
upperback 1.27785 -9.88554 -0.588605
thorax -1.8995 -4.92447 2.99081
lowerneck -18.9834 3.73614 -9.45424
upperneck 27.8595 2.17652 16.9456
head 11.868 1.73678 8.45478
rclavicle -9.0447e-015 -1.98785e-014
rhumerus -80.9797 -27.3096 -23.6481
rradius 25.9602
rwrist 47.88
rhand -31.676 -16.0975
rfingers 7.12502
rthumb -4.93593 -46.02
lclavicle -9.0447e-015 -1.98785e-014
lhumerus 10.9409 -5.81922 65.3211
lradius 30.7389
lwrist -17.7852
lhand -31.5821 18.022
lfingers 7.12502
lthumb -4.84518 47.9466
rfemur -17.9989 -213.933 5.32992
rtibia 28.7574
rfoot -44.4756 -57.1198
rtoes -7.47722
lfemur -16.535 11.8902 -4.46153
ltibia 34.097
lfoot -23.1972 16.6203
ltoes -15.4163
496
root 15.7681 19.1447 -16.7684 897.3 -47.1325 182.966
lowerback 7.44069 -7.19544 -5.22465
upperback 1.13187 -10.0504 -0.52202
thorax -2.15576 -4.99353 3.18652
lowerneck -19.203 4.29522 -8.77788
upperneck 28.3626 2.9013 16.3115
head 12.0157 2.05317 8.21648
rclavicle 3.40916e-014 3.89618e-014
rhumerus -81.9136 -27.8336 -23.3298
rradius 24.7025
rwrist 50.3013
rhand -30.483 -15.7729
rfingers 7.12502
rthumb -3.78385 -45.719
lclavicle 3.40916e-014 3.89618e-014
lhumerus 10.967 -6.79468 68.126
lradius 30.4419
lwrist -17.9785
lhand -31.1925 18.2529
lfingers 7.12502
lthumb -4.46904 48.1858
rfemur -17.592 -212.974 5.23307
rtibia 28.4013
rfoot -44.7541 -57.1031
rtoes -6.83809
lfemur -16.412 10.3901 -4.67339
ltibia 33.0719
lfoot -22.9798 15.6275
ltoes -15.4756
497
root 15.7037 19.1484 -16.7704 896.759 -45.5088 183.418
lowerback 7.37235 -7.2653 -4.78219
upperback 1.23832 -10.0955 -0.31795
thorax -2.04183 -5.02502 3.1435
lowerneck -19.5417 4.87086 -8.11428
upperneck 28.7019 3.71675 15.645
head 12.1246 2.41874 7.97626
rclavicle -2.77802e-014 9.54166e-015
rhumerus -83.156 -28.8425 -22.2325
rradius 23.7438
rwrist 53.3431
rhand -28.8539 -14.999
rfingers 7.12502
rthumb -2.21056 -44.9673
lclavicle -2.77802e-014 9.54166e-015
lhumerus 11.2062 -7.63381 70.9398
lradius 30.0696
lwrist -18.6375
lhand -31.0185 18.5215
lfingers 7.12502
lthumb -4.30101 48.4579
rfemur -17.3792 -211.824 5.69508
rtibia 28.2078
rfoot -44.9359 -57.0896
rtoes -6.24248
lfemur -16.2092 10.2468 -4.46578
ltibia 32.2825
lfoot -21.8301 14.1695
ltoes -17.4568
498
root 15.6396 19.1399 -16.7568 897.056 -43.8004 182.938
lowerback 7.23887 -7.31632 -4.85857
upperback 1.26624 -10.1639 -0.344722
thorax -1.92535 -5.06389 3.13788
lowerneck -19.8149 5.40195 -7.41803
upperneck 28.9568 4.4486 14.9969
head 12.2149 2.74783 7.72149
rclavicle -4.74598e-014 -1.35174e-014
rhumerus -84.0945 -29.6028 -21.8721
rradius 22.9272
rwrist 56.5202
rhand -27.4729 -14.1796
rfingers 7.12502
rthumb -0.876838 -44.1576
lclavicle -4.74598e-014 -1.35174e-014
lhumerus 11.5021 -8.58087 73.361
lradius 29.4755
lwrist -19.7584
lhand -31.1407 18.405
lfingers 7.12502
lthumb -4.41901 48.3389
rfemur -16.9868 -210.935 5.49747
rtibia 28.1398
rfoot -45.5317 -57.2722
rtoes -5.14736
lfemur -16.2487 10.5667 -5.11213
ltibia 31.7588
lfoot -20.5197 12.6686
ltoes -19.1964
